<svg width="1000" height="300" viewBox="0 0 1000 300" fill="none" xmlns="http://www.w3.org/2000/svg">
<g clip-path="url(#clip0_1_2)">
<path d="M128 38H150.5V60.5H128V38ZM150.5 38H173V60.5H150.5V38ZM150.5 60.5H173V83H150.5V60.5ZM150.5 83H173V105.5H150.5V83ZM128 83H150.5V105.5H128V83ZM128 60.5H150.5V83H128V60.5ZM128 105.5H150.5V128H128V105.5ZM128 128H150.5V150.5H128V128ZM150.5 128H173V150.5H150.5V128ZM150.5 105.5H173V128H150.5V105.5ZM150.5 150.5H173V173H150.5V150.5ZM173 150.5H195.5V173H173V150.5ZM173 128H195.5V150.5H173V128ZM173 173H195.5V195.5H173V173ZM195.5 173H218V195.5H195.5V173ZM195.5 150.5H218V173H195.5V150.5ZM218 150.5H240.5V173H218V150.5ZM218 173H240.5V195.5H218V173ZM240.5 173H263V195.5H240.5V173ZM240.5 150.5H263V173H240.5V150.5ZM240.5 128H263V150.5H240.5V128ZM263 128H285.5V150.5H263V128ZM263 150.5H285.5V173H263V150.5ZM263 105.5H285.5V128H263V105.5ZM263 83H285.5V105.5H263V83ZM263 60.5H285.5V83H263V60.5ZM263 38H285.5V60.5H263V38ZM285.5 38H308V60.5H285.5V38ZM285.5 60.5H308V83H285.5V60.5ZM285.5 83H308V105.5H285.5V83ZM285.5 105.5H308V128H285.5V105.5ZM285.5 128H308V150.5H285.5V128ZM195.5 195.5H218V218H195.5V195.5ZM195.5 218H218V240.5H195.5V218ZM195.5 240.5H218V263H195.5V240.5ZM218 240.5H240.5V263H218V240.5ZM218 218H240.5V240.5H218V218ZM218 195.5H240.5V218H218V195.5ZM375.617 83H398.117V105.5H375.617V83ZM353.117 83H375.617V105.5H353.117V83ZM353.117 105.5H375.617V128H353.117V105.5ZM375.617 105.5H398.117V128H375.617V105.5ZM398.117 83H420.617V105.5H398.117V83ZM420.617 83H443.117V105.5H420.617V83ZM443.117 83H465.617V105.5H443.117V83ZM443.117 105.5H465.617V128H443.117V105.5ZM420.617 105.5H443.117V128H420.617V105.5ZM465.617 105.5H488.117V128H465.617V105.5ZM465.617 128H488.117V150.5H465.617V128ZM465.617 218H488.117V240.5H465.617V218ZM443.117 218H465.617V240.5H443.117V218ZM443.117 128H465.617V150.5H443.117V128ZM420.617 218H443.117V240.5H420.617V218ZM443.117 240.5H465.617V263H443.117V240.5ZM420.617 240.5H443.117V263H420.617V240.5ZM398.117 240.5H420.617V263H398.117V240.5ZM375.617 240.5H398.117V263H375.617V240.5ZM353.117 240.5H375.617V263H353.117V240.5ZM353.117 218H375.617V240.5H353.117V218ZM375.617 218H398.117V240.5H375.617V218ZM353.117 195.5H375.617V218H353.117V195.5ZM330.617 218H353.117V240.5H330.617V218ZM330.617 195.5H353.117V218H330.617V195.5ZM330.617 173H353.117V195.5H330.617V173ZM330.617 150.5H353.117V173H330.617V150.5ZM330.617 128H353.117V150.5H330.617V128ZM330.617 105.5H353.117V128H330.617V105.5ZM353.117 128H375.617V150.5H353.117V128ZM353.117 150.5H375.617V173H353.117V150.5ZM353.117 173H375.617V195.5H353.117V173ZM398.117 218H420.617V240.5H398.117V218ZM398.117 105.5H420.617V128H398.117V105.5ZM443.117 150.5H465.617V173H443.117V150.5ZM465.617 150.5H488.117V173H465.617V150.5ZM375.617 173H398.117V195.5H375.617V173ZM398.117 173H420.617V195.5H398.117V173ZM420.617 173H443.117V195.5H420.617V173ZM443.117 173H465.617V195.5H443.117V173ZM465.617 173H488.117V195.5H465.617V173ZM420.617 150.5H443.117V173H420.617V150.5ZM398.117 150.5H420.617V173H398.117V150.5ZM375.617 150.5H398.117V173H375.617V150.5ZM555.676 83H578.176V105.5H555.676V83ZM533.176 83H555.676V105.5H533.176V83ZM533.176 105.5H555.676V128H533.176V105.5ZM555.676 105.5H578.176V128H555.676V105.5ZM578.176 83H600.676V105.5H578.176V83ZM600.676 83H623.176V105.5H600.676V83ZM623.176 83H645.676V105.5H623.176V83ZM623.176 105.5H645.676V128H623.176V105.5ZM600.676 105.5H623.176V128H600.676V105.5ZM623.176 150.5H645.676V173H623.176V150.5ZM645.676 105.5H668.176V128H645.676V105.5ZM645.676 128H668.176V150.5H645.676V128ZM645.676 150.5H668.176V173H645.676V150.5ZM645.676 173H668.176V195.5H645.676V173ZM645.676 195.5H668.176V218H645.676V195.5ZM645.676 218H668.176V240.5H645.676V218ZM623.176 218H645.676V240.5H623.176V218ZM623.176 195.5H645.676V218H623.176V195.5ZM623.176 173H645.676V195.5H623.176V173ZM623.176 128H645.676V150.5H623.176V128ZM600.676 218H623.176V240.5H600.676V218ZM623.176 240.5H645.676V263H623.176V240.5ZM600.676 240.5H623.176V263H600.676V240.5ZM578.176 240.5H600.676V263H578.176V240.5ZM555.676 240.5H578.176V263H555.676V240.5ZM533.176 240.5H555.676V263H533.176V240.5ZM533.176 218H555.676V240.5H533.176V218ZM555.676 218H578.176V240.5H555.676V218ZM533.176 195.5H555.676V218H533.176V195.5ZM510.676 218H533.176V240.5H510.676V218ZM510.676 195.5H533.176V218H510.676V195.5ZM510.676 173H533.176V195.5H510.676V173ZM510.676 150.5H533.176V173H510.676V150.5ZM510.676 128H533.176V150.5H510.676V128ZM510.676 105.5H533.176V128H510.676V105.5ZM533.176 128H555.676V150.5H533.176V128ZM533.176 150.5H555.676V173H533.176V150.5ZM533.176 173H555.676V195.5H533.176V173ZM578.176 218H600.676V240.5H578.176V218ZM578.176 105.5H600.676V128H578.176V105.5ZM690.734 105.5H713.234V128H690.734V105.5ZM690.734 83H713.234V105.5H690.734V83ZM713.234 83H735.734V105.5H713.234V83ZM713.234 105.5H735.734V128H713.234V105.5ZM713.234 128H735.734V150.5H713.234V128ZM713.234 150.5H735.734V173H713.234V150.5ZM713.234 173H735.734V195.5H713.234V173ZM690.734 173H713.234V195.5H690.734V173ZM690.734 150.5H713.234V173H690.734V150.5ZM690.734 128H713.234V150.5H690.734V128ZM690.734 195.5H713.234V218H690.734V195.5ZM713.234 195.5H735.734V218H713.234V195.5ZM713.234 218H735.734V240.5H713.234V218ZM713.234 240.5H735.734V263H713.234V240.5ZM690.734 240.5H713.234V263H690.734V240.5ZM690.734 218H713.234V240.5H690.734V218ZM803.234 240.5H825.734V263H803.234V240.5ZM825.734 240.5H848.234V263H825.734V240.5ZM825.734 218H848.234V240.5H825.734V218ZM825.734 195.5H848.234V218H825.734V195.5ZM825.734 173H848.234V195.5H825.734V173ZM825.734 150.5H848.234V173H825.734V150.5ZM825.734 128H848.234V150.5H825.734V128ZM825.734 105.5H848.234V128H825.734V105.5ZM803.234 150.5H825.734V173H803.234V150.5ZM803.234 173H825.734V195.5H803.234V173ZM803.234 195.5H825.734V218H803.234V195.5ZM803.234 218H825.734V240.5H803.234V218ZM803.234 128H825.734V150.5H803.234V128ZM735.734 105.5H758.234V128H735.734V105.5ZM758.234 105.5H780.734V128H758.234V105.5ZM780.734 105.5H803.234V128H780.734V105.5ZM780.734 83H803.234V105.5H780.734V83ZM803.234 83H825.734V105.5H803.234V83ZM803.234 105.5H825.734V128H803.234V105.5ZM758.234 83H780.734V105.5H758.234V83Z" fill="#6A1EDD"/>
</g>
<defs>
<clipPath id="clip0_1_2">
<rect width="1000" height="300" fill="white"/>
</clipPath>
</defs>
</svg>
